<?xml version="1.0" encoding="UTF-8"?>
<svg width="20px" height="20px" viewBox="0 0 20 20" version="1.1" xmlns="http://www.w3.org/2000/svg" xmlns:xlink="http://www.w3.org/1999/xlink">
    <!-- Generator: Sketch 52.2 (67145) - http://www.bohemiancoding.com/sketch -->
    <title>Combined Shape</title>
    <desc>Created with Sketch.</desc>
    <g id="Настюха-что-то-новое-мутила-(прям-новейшее)" stroke="none" stroke-width="1" fill="none" fill-rule="evenodd">
        <g id="main-comics-screen-copy-2" transform="translate(-84.000000, -40.000000)" fill="#F1F1F1">
            <g id="Group-8" transform="translate(28.000000, 26.000000)">
                <g id="Group-7">
                    <g id="pages-copy-2" transform="translate(52.000000, 0.000000)">
                        <path d="M21,29 L23,29 C23.5522847,29 24,29.4477153 24,30 C24,30.5522847 23.5522847,31 23,31 L21,31 L21,33 C21,33.5522847 20.5522847,34 20,34 C19.4477153,34 19,33.5522847 19,33 L19,31 L15,31 L15,33 C15,33.5522847 14.5522847,34 14,34 C13.4477153,34 13,33.5522847 13,33 L13,31 L9,31 L9,33 C9,33.5522847 8.55228475,34 8,34 C7.44771525,34 7,33.5522847 7,33 L7,31 L5,31 C4.44771525,31 4,30.5522847 4,30 C4,29.4477153 4.44771525,29 5,29 L7,29 L7,25 L5,25 C4.44771525,25 4,24.5522847 4,24 C4,23.4477153 4.44771525,23 5,23 L7,23 L7,19 L5,19 C4.44771525,19 4,18.5522847 4,18 C4,17.4477153 4.44771525,17 5,17 L7,17 L7,15 C7,14.4477153 7.44771525,14 8,14 C8.55228475,14 9,14.4477153 9,15 L9,17 L13,17 L13,15 C13,14.4477153 13.4477153,14 14,14 C14.5522847,14 15,14.4477153 15,15 L15,17 L19,17 L19,15 C19,14.4477153 19.4477153,14 20,14 C20.5522847,14 21,14.4477153 21,15 L21,17 L23,17 C23.5522847,17 24,17.4477153 24,18 C24,18.5522847 23.5522847,19 23,19 L21,19 L21,23 L23,23 C23.5522847,23 24,23.4477153 24,24 C24,24.5522847 23.5522847,25 23,25 L21,25 L21,29 Z M19,29 L19,25 L15,25 L15,29 L19,29 Z M13,29 L13,25 L9,25 L9,29 L13,29 Z M9,23 L13,23 L13,19 L9,19 L9,23 Z M15,23 L19,23 L19,19 L15,19 L15,23 Z" id="Combined-Shape"></path>
                    </g>
                </g>
            </g>
        </g>
    </g>
</svg>