<?xml version="1.0" encoding="UTF-8"?>
<svg width="18px" height="20px" viewBox="0 0 18 20" version="1.1" xmlns="http://www.w3.org/2000/svg" xmlns:xlink="http://www.w3.org/1999/xlink">
    <!-- Generator: Sketch 52.2 (67145) - http://www.bohemiancoding.com/sketch -->
    <title>Group 2</title>
    <desc>Created with Sketch.</desc>
    <g id="Настюха-что-то-новое-мутила-(прям-новейшее)" stroke="none" stroke-width="1" fill="none" fill-rule="evenodd">
        <g id="main-comics-screen-copy-2" transform="translate(-137.000000, -40.000000)">
            <g id="Group-8" transform="translate(28.000000, 26.000000)">
                <g id="Group-7">
                    <g id="pages-copy" transform="translate(104.000000, 0.000000)">
                        <g id="Group-2" transform="translate(5.000000, 14.000000)">
                            <rect id="Rectangle-8" stroke="#F1F1F1" stroke-width="2" x="1" y="1" width="16" height="18" rx="1"></rect>
                            <path d="M6,7 L12,7 C12.5522847,7 13,7.44771525 13,8 C13,8.55228475 12.5522847,9 12,9 L6,9 C5.44771525,9 5,8.55228475 5,8 C5,7.44771525 5.44771525,7 6,7 Z M6,11 L12,11 C12.5522847,11 13,11.4477153 13,12 C13,12.5522847 12.5522847,13 12,13 L6,13 C5.44771525,13 5,12.5522847 5,12 C5,11.4477153 5.44771525,11 6,11 Z" id="Combined-Shape" fill="#F1F1F1"></path>
                        </g>
                    </g>
                </g>
            </g>
        </g>
    </g>
</svg>