<?xml version="1.0" encoding="UTF-8"?>
<svg width="24px" height="24px" viewBox="0 0 24 24" version="1.1" xmlns="http://www.w3.org/2000/svg" xmlns:xlink="http://www.w3.org/1999/xlink">
    <!-- Generator: Sketch 52.2 (67145) - http://www.bohemiancoding.com/sketch -->
    <title>плюсик</title>
    <desc>Created with Sketch.</desc>
    <g id="Настюха-что-то-новое-мутила-(прям-новейшее)" stroke="none" stroke-width="1" fill="none" fill-rule="evenodd">
        <g id="main-comics-screen-copy-7" transform="translate(-338.000000, -38.000000)" fill="#F1F1F1" stroke="#F1F1F1" stroke-width="0.5">
            <g id="кнопка-добавить" transform="translate(322.000000, 26.000000)">
                <path d="M26.7777778,22.7777778 L26.7777778,13.8461538 C26.7777778,13.378836 27.1566138,13 27.6239316,13 L28.3760684,13 C28.8433862,13 29.2222222,13.378836 29.2222222,13.8461538 L29.2222222,22.7777778 L38.1538462,22.7777778 C38.621164,22.7777778 39,23.1566138 39,23.6239316 L39,24.3760684 C39,24.8433862 38.621164,25.2222222 38.1538462,25.2222222 L29.2222222,25.2222222 L29.2222222,34.1538462 C29.2222222,34.621164 28.8433862,35 28.3760684,35 L27.6239316,35 C27.1566138,35 26.7777778,34.621164 26.7777778,34.1538462 L26.7777778,25.2222222 L17.8461538,25.2222222 C17.378836,25.2222222 17,24.8433862 17,24.3760684 L17,23.6239316 C17,23.1566138 17.378836,22.7777778 17.8461538,22.7777778 L26.7777778,22.7777778 Z" id="плюсик"></path>
            </g>
        </g>
    </g>
</svg>