<?xml version="1.0" encoding="UTF-8"?>
<svg width="9px" height="16px" viewBox="0 0 9 16" version="1.1" xmlns="http://www.w3.org/2000/svg" xmlns:xlink="http://www.w3.org/1999/xlink">
    <!-- Generator: Sketch 52.2 (67145) - http://www.bohemiancoding.com/sketch -->
    <title>?</title>
    <desc>Created with Sketch.</desc>
    <g id="Настюха-что-то-новое-мутила-(прям-новейшее)" stroke="none" stroke-width="1" fill="none" fill-rule="evenodd">
        <g id="main-comics-screen-copy-7" transform="translate(-1271.000000, -42.000000)" fill="#F1F1F1">
            <g id="правое-верхнее-меню" transform="translate(1025.000000, 26.000000)">
                <g id="панель-юзера" transform="translate(146.000000, 0.000000)">
                    <g id="вопрос" transform="translate(90.000000, 0.000000)">
                        <path d="M13.24,26.34 L13.24,25.58 C13.24,25.2599984 13.2633331,24.9733346 13.31,24.72 C13.3566669,24.4666654 13.4299995,24.2266678 13.53,24 C13.6300005,23.7733322 13.7633325,23.5533344 13.93,23.34 C14.0966675,23.1266656 14.3066654,22.9000012 14.56,22.66 L15.46,21.8 C15.7133346,21.5733322 15.9299991,21.3200014 16.11,21.04 C16.2900009,20.7599986 16.38,20.420002 16.38,20.02 C16.38,19.4999974 16.2166683,19.0633351 15.89,18.71 C15.5633317,18.3566649 15.100003,18.18 14.5,18.18 C14.1933318,18.18 13.9166679,18.2366661 13.67,18.35 C13.4233321,18.4633339 13.2100009,18.6166657 13.03,18.81 C12.8499991,19.0033343 12.7133338,19.2266654 12.62,19.48 C12.5266662,19.7333346 12.4733334,19.993332 12.46,20.26 L10,20.04 C10.0800004,19.3999968 10.2499987,18.8300025 10.51,18.33 C10.7700013,17.8299975 11.1066646,17.4066684 11.52,17.06 C11.9333354,16.7133316 12.406664,16.4500009 12.94,16.27 C13.473336,16.0899991 14.0466636,16 14.66,16 C15.2333362,16 15.7766641,16.0833325 16.29,16.25 C16.8033359,16.4166675 17.2566647,16.6633317 17.65,16.99 C18.0433353,17.3166683 18.3533322,17.7199976 18.58,18.2 C18.8066678,18.6800024 18.92,19.2333302 18.92,19.86 C18.92,20.2866688 18.8733338,20.6599984 18.78,20.98 C18.6866662,21.3000016 18.5533342,21.593332 18.38,21.86 C18.2066658,22.126668 17.9966679,22.3833321 17.75,22.63 C17.5033321,22.8766679 17.2266682,23.133332 16.92,23.4 C16.653332,23.6266678 16.4366675,23.8266658 16.27,24 C16.1033325,24.1733342 15.9700005,24.3466658 15.87,24.52 C15.7699995,24.6933342 15.7000002,24.879999 15.66,25.08 C15.6199998,25.280001 15.6,25.5266652 15.6,25.82 L15.6,26.34 L13.24,26.34 Z M12.84,30.12 C12.84,29.6933312 12.9966651,29.3266682 13.31,29.02 C13.6233349,28.7133318 13.9999978,28.56 14.44,28.56 C14.8666688,28.56 15.2399984,28.7066652 15.56,29 C15.8800016,29.2933348 16.04,29.6533312 16.04,30.08 C16.04,30.5066688 15.8833349,30.8733318 15.57,31.18 C15.2566651,31.4866682 14.8800022,31.64 14.44,31.64 C14.2266656,31.64 14.0233343,31.6000004 13.83,31.52 C13.6366657,31.4399996 13.4666674,31.333334 13.32,31.2 C13.1733326,31.066666 13.0566671,30.9066676 12.97,30.72 C12.8833329,30.5333324 12.84,30.3333344 12.84,30.12 Z" id="?"></path>
                    </g>
                </g>
            </g>
        </g>
    </g>
</svg>